<svg width="30" height="30" viewBox="0 0 30 30" fill="none" xmlns="http://www.w3.org/2000/svg">
<path fill-rule="evenodd" clip-rule="evenodd" d="M15 3.75C21.2132 3.75 26.25 8.78679 26.25 15C26.25 21.2132 21.2132 26.25 15 26.25C8.78681 26.25 3.75 21.2132 3.75 15C3.75 8.78681 8.78679 3.75 15 3.75Z" fill="#FFD54F"/>
<path fill-rule="evenodd" clip-rule="evenodd" d="M16.3396 11.6987C16.3396 10.9221 16.6544 10.219 17.1634 9.71003C17.6724 9.20104 18.3755 8.88623 19.1521 8.88623C19.9287 8.88623 20.6318 9.20105 21.1408 9.71003C21.6498 10.219 21.9646 10.9221 21.9646 11.6987H21.0271C21.0271 11.1809 20.8172 10.7121 20.478 10.3729C20.1387 10.0336 19.6699 9.82376 19.1521 9.82376C18.6343 9.82376 18.1655 10.0336 17.8263 10.3729C17.487 10.7121 17.2771 11.1809 17.2771 11.6987H16.3396Z" fill="#5D4037"/>
<path fill-rule="evenodd" clip-rule="evenodd" d="M19.152 10.7612C19.6618 10.7612 20.075 11.1745 20.075 11.6842C20.075 12.194 19.6618 12.6072 19.152 12.6072C18.6422 12.6072 18.229 12.194 18.229 11.6842C18.229 11.1745 18.6422 10.7612 19.152 10.7612Z" fill="#5D4037"/>
<path fill-rule="evenodd" clip-rule="evenodd" d="M8.03542 11.6987C8.03542 10.1455 9.29471 8.88623 10.8479 8.88623C12.4011 8.88623 13.6604 10.1455 13.6604 11.6987H12.7229C12.7229 10.6631 11.8835 9.82374 10.8479 9.82374C9.81229 9.82374 8.97292 10.6631 8.97292 11.6987H8.0354H8.03542Z" fill="#5D4037"/>
<path fill-rule="evenodd" clip-rule="evenodd" d="M10.8476 10.7612C11.3573 10.7612 11.7706 11.1745 11.7706 11.6842C11.7706 12.194 11.3573 12.6072 10.8476 12.6072C10.3378 12.6072 9.92456 12.194 9.92456 11.6842C9.92456 11.1745 10.3378 10.7612 10.8476 10.7612Z" fill="#5D4037"/>
<path fill-rule="evenodd" clip-rule="evenodd" d="M9.88916 21.1136C10.6861 16.5319 19.5159 16.7188 20.2017 21.1136C18.5289 18.8385 13.0315 17.7524 9.88916 21.1136Z" fill="#5D4037"/>
</svg>
