<svg width="30" height="30" viewBox="0 0 30 30" fill="none" xmlns="http://www.w3.org/2000/svg">
<path fill-rule="evenodd" clip-rule="evenodd" d="M15 3.75C21.2132 3.75 26.25 8.78679 26.25 15C26.25 21.2132 21.2132 26.25 15 26.25C8.78681 26.25 3.75 21.2132 3.75 15C3.75 8.78681 8.78679 3.75 15 3.75Z" fill="#FFD54F"/>
<path fill-rule="evenodd" clip-rule="evenodd" d="M9.6521 21.7931C10.4253 15.8099 19.3316 15.8099 19.9646 21.7931C18.2715 18.1641 12.7691 16.8937 9.6521 21.7931Z" fill="#5D4037"/>
<path d="M19.8665 12.6693C18.7161 12.2858 18.1344 12.2937 17.0803 12.6705C17.4862 10.8457 19.3984 10.5254 19.8665 12.6693Z" fill="#5D4037"/>
<path d="M21.2968 9.46053C19.6399 9.8755 19.0476 9.56873 18.3545 8.20654C18.1735 9.82102 20.086 10.9324 21.2968 9.46053Z" fill="#5D4037"/>
<path d="M10.1335 12.6693C11.284 12.2858 11.8656 12.2937 12.9197 12.6705C12.5138 10.8457 10.6016 10.5254 10.1335 12.6693Z" fill="#5D4037"/>
<path d="M8.70312 9.46053C10.36 9.8755 10.9523 9.56873 11.6454 8.20654C11.8264 9.82102 9.91389 10.9324 8.70312 9.46053Z" fill="#5D4037"/>
</svg>
