<svg width="24" height="23" viewBox="0 0 24 23" fill="none" xmlns="http://www.w3.org/2000/svg">
<path d="M12 23C18.3513 23 23.5 17.8513 23.5 11.5C23.5 5.14873 18.3513 0 12 0C5.64873 0 0.5 5.14873 0.5 11.5C0.5 17.8513 5.64873 23 12 23Z" fill="#FFCE52"/>
<path d="M16.5 10.5C17.3284 10.5 18 9.60457 18 8.5C18 7.39543 17.3284 6.5 16.5 6.5C15.6716 6.5 15 7.39543 15 8.5C15 9.60457 15.6716 10.5 16.5 10.5Z" fill="#273941"/>
<path d="M7.5 10.5C8.32843 10.5 9 9.60457 9 8.5C9 7.39543 8.32843 6.5 7.5 6.5C6.67157 6.5 6 7.39543 6 8.5C6 9.60457 6.67157 10.5 7.5 10.5Z" fill="#273941"/>
<path d="M16.5 10C17.0523 10 17.5 9.32843 17.5 8.5C17.5 7.67157 17.0523 7 16.5 7C15.9477 7 15.5 7.67157 15.5 8.5C15.5 9.32843 15.9477 10 16.5 10Z" fill="#141E21"/>
<path d="M7.5 10C8.05228 10 8.5 9.32843 8.5 8.5C8.5 7.67157 8.05228 7 7.5 7C6.94772 7 6.5 7.67157 6.5 8.5C6.5 9.32843 6.94772 10 7.5 10Z" fill="#141E21"/>
<path d="M17 8.5C17.2761 8.5 17.5 8.27614 17.5 8C17.5 7.72386 17.2761 7.5 17 7.5C16.7239 7.5 16.5 7.72386 16.5 8C16.5 8.27614 16.7239 8.5 17 8.5Z" fill="#F6FAFD"/>
<path d="M8 8.5C8.27614 8.5 8.5 8.27614 8.5 8C8.5 7.72386 8.27614 7.5 8 7.5C7.72386 7.5 7.5 7.72386 7.5 8C7.5 8.27614 7.72386 8.5 8 8.5Z" fill="#F6FAFD"/>
<path d="M16 15.5H8V16.5H16V15.5Z" fill="#273941"/>
</svg>
