<svg width="24" height="23" viewBox="0 0 24 23" fill="none" xmlns="http://www.w3.org/2000/svg">
<path d="M23.5 11.5C23.5 11.602 23.4989 11.7035 23.4958 11.8044C23.4195 14.7626 22.232 17.5322 20.1318 19.6319C17.9602 21.804 15.0719 23.0001 12 23.0001C8.92807 23.0001 6.03978 21.804 3.86819 19.6319C1.76806 17.5322 0.580529 14.7625 0.504295 11.8044C0.50102 11.7035 0.5 11.602 0.5 11.5C0.5 8.42813 1.69606 5.54037 3.86819 3.36824C6.03983 1.19612 8.92813 0 12 0C15.0719 0 17.9602 1.19612 20.1318 3.36824C22.3039 5.54037 23.5 8.42813 23.5 11.5Z" fill="#F3B81A"/>
<path d="M8.48626 7.40869C7.54193 7.40869 6.77368 8.17747 6.77368 9.1218C6.77368 10.0661 7.54198 10.8344 8.48626 10.8344C9.43054 10.8344 10.1988 10.0661 10.1988 9.1218C10.1988 8.17753 9.43059 7.40869 8.48626 7.40869ZM8.48626 10.2975C7.83773 10.2975 7.31054 9.76979 7.31054 9.1218C7.31054 8.47328 7.83773 7.94555 8.48626 7.94555C9.13478 7.94555 9.66198 8.47328 9.66198 9.1218C9.66198 9.76979 9.13478 10.2975 8.48626 10.2975ZM15.5137 7.40869C14.5693 7.40869 13.8011 8.17747 13.8011 9.1218C13.8011 10.0661 14.5694 10.8344 15.5137 10.8344C16.458 10.8344 17.2262 10.0661 17.2262 9.1218C17.2263 8.17747 16.458 7.40869 15.5137 7.40869ZM15.5137 10.2975C14.8657 10.2975 14.338 9.76979 14.338 9.1218C14.338 8.47328 14.8657 7.94555 15.5137 7.94555C16.1622 7.94555 16.6893 8.47328 16.6893 9.1218C16.6894 9.76979 16.1622 10.2975 15.5137 10.2975Z" fill="#5E2B16"/>
<path d="M11.9999 18.4072C9.81208 18.4072 7.78405 17.3837 6.70728 15.7361L7.15668 15.4424C8.13532 16.94 9.99123 17.8704 11.9999 17.8704C14.0086 17.8704 15.8644 16.9401 16.8432 15.4424L17.2926 15.7361C16.2158 17.3837 14.1878 18.4072 11.9999 18.4072Z" fill="#5E2B16"/>
</svg>
