<svg width="24" height="23" viewBox="0 0 24 23" fill="none" xmlns="http://www.w3.org/2000/svg">
<path d="M23.5 11.4999C23.5 11.6019 23.4989 11.7034 23.4958 11.8043C23.4195 14.7625 22.232 17.532 20.1318 19.6318C17.9602 21.8039 15.0719 23 12 23C8.92797 23 6.03978 21.8039 3.86808 19.6318C1.76806 17.532 0.580529 14.7624 0.504295 11.8043C0.500913 11.7034 0.5 11.6019 0.5 11.4999C0.5 8.42805 1.69596 5.54032 3.86808 3.36821C6.03983 1.19611 8.92813 0 12 0C15.0719 0 17.9602 1.19611 20.1318 3.36821C22.3039 5.54032 23.5 8.42805 23.5 11.4999Z" fill="#F3B81A"/>
<path d="M11.9999 18.4064C9.81208 18.4064 7.78405 17.3829 6.70728 15.7353L7.15668 15.4414C8.13532 16.939 9.99123 17.8695 11.9999 17.8695C14.0086 17.8695 15.8643 16.9392 16.8432 15.4414L17.2926 15.7353C16.2158 17.3829 14.1878 18.4064 11.9999 18.4064Z" fill="#5E2B16"/>
<path d="M15.5137 9.12158C16.4502 9.12158 17.2123 9.88348 17.2123 10.8201H16.6754C16.6754 10.1796 16.1543 9.65843 15.5137 9.65843C14.8732 9.65843 14.352 10.1796 14.352 10.8201H13.8152C13.8153 9.88348 14.5772 9.12158 15.5137 9.12158Z" fill="#5E2C17"/>
<path d="M8.48616 9.12158C9.42266 9.12158 10.1847 9.88348 10.1847 10.8201H9.64787C9.64787 10.1796 9.12674 9.65843 8.48616 9.65843C7.84558 9.65843 7.32446 10.1796 7.32446 10.8201H6.7876C6.7876 9.88348 7.54956 9.12158 8.48616 9.12158Z" fill="#5E2C17"/>
</svg>
