<svg width="38" height="52" viewBox="0 0 38 52" fill="none" xmlns="http://www.w3.org/2000/svg">
<path d="M29.7442 15.1323C32.4875 8.95205 33.3153 7.171 36.4563 0H32.0593L26.0853 13.4414C27.3645 13.8913 28.5887 14.4591 29.7442 15.1323Z" fill="#FEC007"/>
<path d="M19.0001 12.2353C20.4016 12.2353 21.7718 12.3714 23.0987 12.6299L28.712 0H24.2212C22.65 3.55721 20.6096 8.17675 18.993 11.8369L13.7532 0H9.28809L14.9013 12.6299C16.2284 12.3714 17.5985 12.2353 19.0001 12.2353Z" fill="#FEC007"/>
<path d="M11.9147 13.4414L5.94068 0H1.50671L8.24867 15.1366C9.40633 14.4615 10.6329 13.8924 11.9147 13.4414Z" fill="#FEC007"/>
<path d="M19 15.2941C8.88022 15.2941 0.647095 23.5272 0.647095 33.6471C0.647095 43.7669 8.88022 52 19 52C29.1198 52 37.353 43.7669 37.353 33.6471C37.353 23.5272 29.1198 15.2941 19 15.2941ZM13.1168 42.0438L14.2404 35.4929L9.48077 30.8533L16.0585 29.8975L19 23.9372L21.9417 29.8975L28.5193 30.8533L23.7597 35.4929L24.8833 42.0438L19 38.9509L13.1168 42.0438ZM19 35.4951L20.8207 36.4523L20.4731 34.4248L21.946 32.9891L19.9104 32.6933L19 30.8487L18.0897 32.6933L16.0542 32.9891L17.5271 34.4248L17.1793 36.4523L19 35.4951Z" fill="#FEC007"/>
</svg>
