<svg width="15" height="15" viewBox="0 0 15 15" fill="none" xmlns="http://www.w3.org/2000/svg">
<path d="M14.0707 7.49999L14.8997 6.06727C14.9993 5.89489 15.0264 5.69001 14.975 5.49766C14.9236 5.30531 14.7979 5.14124 14.6256 5.04154L13.1914 4.21254V2.56056C13.1914 2.3614 13.1123 2.17041 12.9715 2.02959C12.8306 1.88877 12.6396 1.80965 12.4405 1.80965H10.7893L9.96101 0.376181C9.86098 0.204162 9.69723 0.0784527 9.50521 0.0262609C9.40997 0.000441824 9.31055 -0.00621575 9.21272 0.00667408C9.11488 0.0195639 9.02058 0.0517448 8.93528 0.101351L7.50105 0.930347L6.06683 0.1006C5.89437 0.00102887 5.68941 -0.0259545 5.49705 0.0255858C5.30469 0.0771261 5.14068 0.202969 5.0411 0.375431L4.2121 1.80965H2.56087C2.36172 1.80965 2.17072 1.88877 2.0299 2.02959C1.88908 2.17041 1.80997 2.3614 1.80997 2.56056V4.21179L0.375744 5.04079C0.290166 5.09001 0.215157 5.15566 0.155028 5.23396C0.0948983 5.31227 0.0508336 5.40168 0.0253651 5.49706C-0.000103317 5.59245 -0.00647354 5.69193 0.00662045 5.78978C0.0197144 5.88763 0.0520145 5.98194 0.101665 6.06727L0.930661 7.49999L0.101665 8.93271C0.00253749 9.10525 -0.0243574 9.30998 0.0268439 9.50227C0.0780453 9.69455 0.20319 9.8588 0.374993 9.95919L1.80922 10.7882V12.4394C1.80922 12.6386 1.88833 12.8296 2.02915 12.9704C2.16997 13.1112 2.36097 13.1903 2.56012 13.1903H4.2121L5.0411 14.6245C5.10758 14.7382 5.2025 14.8326 5.31651 14.8984C5.43053 14.9642 5.55972 14.9992 5.69138 15C5.82204 15 5.95194 14.9655 6.06758 14.8986L7.5003 14.0696L8.93453 14.8986C9.10695 14.9981 9.31177 15.025 9.50406 14.9737C9.69635 14.9223 9.86041 14.7967 9.96026 14.6245L10.7885 13.1903H12.4397C12.6389 13.1903 12.8299 13.1112 12.9707 12.9704C13.1115 12.8296 13.1906 12.6386 13.1906 12.4394V10.7882L14.6249 9.95919C14.7103 9.90982 14.7852 9.8441 14.8452 9.76578C14.9052 9.68746 14.9492 9.59808 14.9746 9.50275C15.0001 9.40742 15.0065 9.30801 14.9935 9.2102C14.9805 9.11239 14.9484 9.0181 14.8989 8.93271L14.0707 7.49999ZM5.62305 3.73797C5.92188 3.73807 6.20842 3.85687 6.41966 4.06825C6.63089 4.27962 6.7495 4.56625 6.7494 4.86507C6.7493 5.1639 6.6305 5.45045 6.41912 5.66168C6.20775 5.87291 5.92112 5.99153 5.6223 5.99143C5.32347 5.99133 5.03692 5.87252 4.82569 5.66115C4.61446 5.44978 4.49584 5.16315 4.49594 4.86432C4.49604 4.5655 4.61485 4.27895 4.82622 4.06772C5.03759 3.85648 5.32422 3.73787 5.62305 3.73797ZM5.84832 10.9466L4.64688 10.0463L9.15229 4.03908L10.3537 4.93941L5.84832 10.9466ZM9.37756 11.247C9.22959 11.2469 9.08309 11.2177 8.94641 11.1611C8.80972 11.1044 8.68554 11.0214 8.58095 10.9167C8.47636 10.8121 8.39341 10.6878 8.33683 10.5511C8.28025 10.4144 8.25116 10.2679 8.25121 10.1199C8.25126 9.97192 8.28045 9.82542 8.33712 9.68874C8.39379 9.55205 8.47682 9.42787 8.58148 9.32328C8.68614 9.21869 8.81038 9.13574 8.9471 9.07916C9.08382 9.02258 9.23035 8.99348 9.37831 8.99353C9.67714 8.99363 9.96369 9.11244 10.1749 9.32381C10.3861 9.53518 10.5048 9.82181 10.5047 10.1206C10.5046 10.4195 10.3858 10.706 10.1744 10.9172C9.96301 11.1285 9.67639 11.2471 9.37756 11.247Z" fill="white"/>
</svg>
