<svg width="20" height="25" viewBox="0 0 20 25" fill="none" xmlns="http://www.w3.org/2000/svg">
<path d="M10 1.5V24M10 1.5H17C17.5304 1.5 18.0391 1.76339 18.4142 2.23223C18.7893 2.70107 19 3.33696 19 4V21.5C19 22.163 18.7893 22.7989 18.4142 23.2678C18.0391 23.7366 17.5304 24 17 24H10V1.5ZM10 1.5H3C2.46957 1.5 1.96086 1.76339 1.58579 2.23223C1.21071 2.70107 1 3.33696 1 4V21.5C1 22.163 1.21071 22.7989 1.58579 23.2678C1.96086 23.7366 2.46957 24 3 24H10V1.5Z" stroke="black" stroke-width="2" stroke-linecap="round" stroke-linejoin="round"/>
</svg>
